<svg xmlns="http://www.w3.org/2000/svg" version="1.1" x="0px" y="0px" viewBox="0 0 100 125"
      xml:space="preserve"><g><path d="M49.97249,100c-27.55456,0-49.972-22.41743-49.972-49.97101C0.00049,22.44298,22.41793,0,49.97249,0   c27.58404,0,50.02702,22.44298,50.02702,50.02899C99.99951,77.58257,77.55653,100,49.97249,100z M49.97249,3.42344   c-25.66794,0-46.54856,20.90715-46.54856,46.60555c0,25.66695,20.88062,46.54757,46.54856,46.54757   c25.69741,0,46.60358-20.88062,46.60358-46.54757C96.57607,24.33059,75.6699,3.42344,49.97249,3.42344z"/><path
  d="M49.97249,68.16909c-10.00305,0-18.14109-8.13804-18.14109-18.1401c0-10.00305,8.13804-18.14108,18.14109-18.14108   c10.00108,0,18.13911,8.13804,18.13911,18.14108C68.1116,60.03105,59.97357,68.16909,49.97249,68.16909z M49.97249,35.31134   c-8.11642,0-14.71765,6.6022-14.71765,14.71764s6.60123,14.71666,14.71765,14.71666c8.11445,0,14.71568-6.60123,14.71568-14.71666   S58.08694,35.31134,49.97249,35.31134z"/><path
  d="M49.97249,58.12968c-4.46698,0-8.1007-3.63372-8.1007-8.1007s3.63372-8.1007,8.1007-8.1007   c4.49842,0,8.15769,3.63372,8.15769,8.1007S54.47091,58.12968,49.97249,58.12968z M49.97249,45.35173   c-2.57839,0-4.67726,2.09789-4.67726,4.67726c0,2.57937,2.09887,4.67726,4.67726,4.67726   c2.60983,0,4.73425-2.09789,4.73425-4.67726C54.70674,47.44962,52.58232,45.35173,49.97249,45.35173z"/><path
  d="M91.04393,51.74071c-0.94527,0-1.71172-0.76644-1.71172-1.71172c0-21.70406-17.65567-39.36071-39.35973-39.36071   c-0.94528,0-1.71172-0.76644-1.71172-1.71172s0.76644-1.71172,1.71172-1.71172c23.59068,0,42.78316,19.19347,42.78316,42.78415   C92.75565,50.97427,91.98921,51.74071,91.04393,51.74071z"/><path
  d="M49.97249,92.75516c-23.55924,0-42.72814-19.16693-42.72814-42.72617v-1.76871c0-0.94528,0.76644-1.71172,1.71172-1.71172   s1.71172,0.76644,1.71172,1.71172v1.76871c0,21.67163,17.63209,39.30273,39.3047,39.30273   c0.94528,0,1.71172,0.76644,1.71172,1.71172C51.68421,91.98872,50.91777,92.75516,49.97249,92.75516z"/><path
  d="M82.88428,69.59585c-0.27513,0-0.55616-0.06682-0.81557-0.20831l-8.49964-4.62125   c-0.82933-0.45102-1.13787-1.49063-0.68587-2.32094c0.45004-0.83031,1.48572-1.14082,2.32095-0.68587l8.49964,4.62125   c0.82933,0.45103,1.13787,1.49063,0.68587,2.32095C84.07914,69.27257,83.49153,69.59585,82.88428,69.59585z M25.61143,38.44884   c-0.27513,0-0.55616-0.06682-0.81557-0.20832l-8.49964-4.62027c-0.82933-0.45102-1.13787-1.49063-0.68587-2.32094   c0.45004-0.83031,1.48768-1.14082,2.32094-0.68587l8.49964,4.62027c0.82933,0.45102,1.13787,1.49063,0.68587,2.32094   C26.8063,38.12556,26.21869,38.44884,25.61143,38.44884z"/><path
  d="M67.8856,84.59845c-0.60529,0-1.1929-0.32131-1.5034-0.89025l-4.62027-8.44265   c-0.45397-0.82932-0.14936-1.86893,0.67997-2.32291c0.83326-0.45299,1.8709-0.14935,2.32291,0.67998l4.62027,8.44264   c0.45397,0.82933,0.14936,1.86894-0.67997,2.32291C68.44373,84.53065,68.1627,84.59845,67.8856,84.59845z M36.74056,27.32561   c-0.60726,0-1.19486-0.32328-1.50537-0.89418l-4.62223-8.49964c-0.452-0.83031-0.14543-1.86894,0.68587-2.32094   c0.8313-0.45397,1.86894-0.14445,2.32094,0.68587l4.62223,8.49964c0.452,0.83031,0.14543,1.86894-0.68587,2.32094   C37.29672,27.25879,37.01569,27.32561,36.74056,27.32561z"/></g>
</svg>
